<?xml version="1.0" encoding="utf-8"?>
<!-- Generator: Adobe Illustrator 19.0.0, SVG Export Plug-In . SVG Version: 6.00 Build 0)  -->
<svg version="1.1" id="Capa_1" focusable="false" xmlns="http://www.w3.org/2000/svg" xmlns:xlink="http://www.w3.org/1999/xlink"
	 x="0px" y="0px" viewBox="-223 25 512 512" style="enable-background:new -223 25 512 512;" xml:space="preserve">
<style type="text/css">
	.st0{fill:#49B7F3;}
</style>
<path class="st0" d="M-223,473V89h18v384H-223z M-196.1,472.7V89h9.1v383.7H-196.1z M-169,472.7V89h8.9v383.7H-169z M-124.1,472.7
	V89h8.9v383.7H-124.1z M-88.1,472.7V89h17.7v383.7H-88.1z M-43.3,472.7V89h8.9v383.7H-43.3z M-25.3,472.7V89h8.9v383.7H-25.3z
	 M-7.3,472.7V89h8.9v383.7H-7.3z M28.4,472.7V89h18v383.7H28.4z M73.3,472.7V89h18v383.7H73.3z M109.3,472.7V89h18v383.7H109.3z
	 M145.3,472.7V89h18v383.7H145.3z M172.1,472.7V89h18v383.7H172.1z M217.3,472.7V89h26.9v383.7H217.3z M253,472.7V89h9.1v383.7H253
	L253,472.7z M271,473V89h18v384H271z"/>
</svg>
