<svg id="Layer_1" enable-background="new 0 0 512 512" height="512" viewBox="0 0 512 512" width="512" xmlns="http://www.w3.org/2000/svg"><circle cx="406" cy="272" r="10"/><path d="m90 392h40c5.522 0 10-4.477 10-10s-4.478-10-10-10h-40c-5.522 0-10 4.477-10 10s4.478 10 10 10z"/><path d="m90 432h40c5.522 0 10-4.477 10-10s-4.478-10-10-10h-40c-5.522 0-10 4.477-10 10s4.478 10 10 10z"/><path d="m90 472h40c5.522 0 10-4.477 10-10s-4.478-10-10-10h-40c-5.522 0-10 4.477-10 10s4.478 10 10 10z"/><path d="m462 332h-46v-15c0-5.51-4.49-10-10-10s-10 4.49-10 10v15h-54c-5.522 0-10 4.477-10 10v150h-26v-50c0-5.523-4.478-10-10-10h-80c-5.522 0-10 4.477-10 10v50h-26v-150c0-5.523-4.478-10-10-10h-54v-120h280v15c0 5.51 4.49 10 10 10s10-4.49 10-10c0 0 0-24.963 0-25 0-5.448-4.556-10-10-10h-30v-70c0-5.523-4.478-10-10-10h-40v-70c0-5.523-4.478-10-10-10h-50v-22c0-5.523-4.478-10-10-10s-10 4.477-10 10v22h-50c-5.522 0-10 4.477-10 10v70h-40c-5.522 0-10 4.477-10 10v70s-29.909 0-30 0c-5.432 0-10 4.564-10 10v130h-46c-5.522 0-10 4.477-10 10v160c0 5.523 4.478 10 10 10h412c5.522 0 10-4.477 10-10v-160c0-5.523-4.478-10-10-10zm-256-280h100v60h-100zm-50 80h200v60h-200zm4 360h-100v-140h100zm66-40h20v40h-20zm40 40v-40h20v40zm186 0h-100v-140h100z"/><path d="m382 392h40c5.522 0 10-4.477 10-10s-4.478-10-10-10h-40c-5.522 0-10 4.477-10 10s4.478 10 10 10z"/><path d="m382 432h40c5.522 0 10-4.477 10-10s-4.478-10-10-10h-40c-5.522 0-10 4.477-10 10s4.478 10 10 10z"/><path d="m382 472h40c5.522 0 10-4.477 10-10s-4.478-10-10-10h-40c-5.522 0-10 4.477-10 10s4.478 10 10 10z"/><path d="m316 152h-120c-5.522 0-10 4.477-10 10s4.478 10 10 10h120c5.522 0 10-4.477 10-10s-4.478-10-10-10z"/><path d="m276 72h-40c-5.522 0-10 4.477-10 10s4.478 10 10 10h40c5.522 0 10-4.477 10-10s-4.478-10-10-10z"/><path d="m296 392h-80c-5.522 0-10 4.477-10 10s4.478 10 10 10h80c5.522 0 10-4.477 10-10s-4.478-10-10-10z"/><path d="m296 352h-80c-5.522 0-10 4.477-10 10s4.478 10 10 10h80c5.522 0 10-4.477 10-10s-4.478-10-10-10z"/><path d="m296 312h-80c-5.522 0-10 4.477-10 10s4.478 10 10 10h80c5.522 0 10-4.477 10-10s-4.478-10-10-10z"/><path d="m356 282c0-5.523-4.478-10-10-10h-180c-5.522 0-10 4.477-10 10s4.478 10 10 10h180c5.522 0 10-4.477 10-10z"/><path d="m346 232h-180c-5.522 0-10 4.477-10 10s4.478 10 10 10h180c5.522 0 10-4.477 10-10s-4.478-10-10-10z"/></svg>