<svg xmlns="http://www.w3.org/2000/svg" width="215" height="215" viewBox="0 0 215 215">
  <g id="icon-chart" transform="translate(-16 -14)">
    <circle id="Elipse_25" data-name="Elipse 25" cx="107.5" cy="107.5" r="107.5" transform="translate(16 14)" fill="#49b7f3" opacity="0.15"/>
    <path id="Trazado_112" data-name="Trazado 112" d="M39.614,49.281,60.476,70.2a3.424,3.424,0,0,0,5.466-.451,38.35,38.35,0,0,0-2.461-44.4L39.614,49.281ZM28.5,51.049V19.786a29.812,29.812,0,1,0,22.044,53.37ZM59.664,16.267a3.571,3.571,0,0,0-.378-5.581,46.437,46.437,0,0,0-18.069-7.5A3.562,3.562,0,0,0,37,6.861V38.995l22.66-22.728Z" transform="translate(86 80.88)" fill="#49b7f3"/>
  </g>
</svg>
