<svg id="Layer_1" enable-background="new 0 0 512 512" height="512" viewBox="0 0 512 512" width="512" xmlns="http://www.w3.org/2000/svg"><path d="m154 70c0 5.522 4.477 10 10 10h81c5.523 0 10-4.478 10-10s-4.477-10-10-10h-81c-5.523 0-10 4.478-10 10z"/><path d="m507.876 30.624c-7.811-17.739-25.793-30.624-45.876-30.624h-143.141c-5.52 0-10 4.49-10 10s4.48 10 10 10h143.141c16.51.03 29.97 13.49 30 30v292h-41v-40c0-5.522-4.478-10-10-10h-92.5c-5.522 0-10 4.478-10 10v40h-26.25v-40c0-5.522-4.478-10-10-10h-92.5c-5.523 0-10 4.478-10 10v40h-26.25v-40c0-5.522-4.477-10-10-10h-92.5c-5.523 0-10 4.478-10 10v40h-41v-292c.03-16.51 13.49-29.97 30-30h178.86c5.51 0 10-4.49 10-10s-4.49-10-10-10c0 0-178.813 0-178.86 0-27.119 0-50 22.915-50 50v322c0 27.57 22.43 50 50 50h136v15c0 4.869 0 15-25 15-24.813 0-45 20.187-45 45v5c0 5.522 4.477 10 10 10h260c5.522 0 10-4.478 10-10v-5c0-24.813-20.187-45-45-45-25 0-25-10.131-25-15v-15h136c27.57 0 50-22.43 50-50 0 0 0-321.946 0-322 0-6.807-1.479-13.37-4.124-19.376zm-149.376 281.376h72.5v30h-72.5zm-138.75 0h72.5v30h-72.5zm-138.75 0h72.5v30h-72.5zm270 160c12.073 0 22.175 8.604 24.498 20h-238.996c2.323-11.396 12.425-20 24.498-20h62c5.523 0 10-4.478 10-10s-4.477-10-10-10h-20.027c2.359-5.222 3.027-10.61 3.027-15v-15h100v15c0 4.39.668 9.778 3.027 15h-19.527c-5.522 0-10 4.478-10 10s4.478 10 10 10zm141-100c0 16.542-13.458 30-30 30h-412c-16.542 0-30-13.458-30-30v-10h472z"/><path d="m273.85 20c5.521 0 10-4.49 10-10s-4.479-10-10-10c-5.51 0-9.99 4.49-9.99 10s4.48 10 9.99 10z"/><path d="m154 110c0 5.522 4.477 10 10 10h131c5.522 0 10-4.478 10-10s-4.478-10-10-10h-131c-5.523 0-10 4.478-10 10z"/><path d="m61 262c0 5.522 4.477 10 10 10h92.5c5.523 0 10-4.478 10-10v-90c0-5.522-4.477-10-10-10h-92.5c-5.523 0-10 4.478-10 10zm20-80h72.5v70h-72.5z"/><path d="m199.75 172v90c0 5.522 4.477 10 10 10h92.5c5.522 0 10-4.478 10-10v-90c0-5.522-4.478-10-10-10h-92.5c-5.523 0-10 4.478-10 10zm20 10h72.5v70h-72.5z"/><path d="m348.5 272h92.5c5.522 0 10-4.478 10-10v-90c0-5.522-4.478-10-10-10h-92.5c-5.522 0-10 4.478-10 10v90c0 5.522 4.478 10 10 10zm10-90h72.5v70h-72.5z"/><path d="m91 120c16.542 0 30-13.458 30-30s-13.458-30-30-30-30 13.458-30 30 13.458 30 30 30zm0-40c5.514 0 10 4.486 10 10s-4.486 10-10 10-10-4.486-10-10 4.486-10 10-10z"/></svg>