<?xml version="1.0" encoding="utf-8"?>
<!-- Generator: Adobe Illustrator 19.0.0, SVG Export Plug-In . SVG Version: 6.00 Build 0)  -->
<svg version="1.1" id="Capa_1" focusable="false" xmlns="http://www.w3.org/2000/svg" xmlns:xlink="http://www.w3.org/1999/xlink"
	 x="0px" y="0px" viewBox="-255 25 448 512" style="enable-background:new -255 25 448 512;" xml:space="preserve">
<style type="text/css">
	.st0{fill:#49B7F3;}
</style>
<path class="st0" d="M97,185v-32C97,82.4,39.6,25-31,25c-70.6,0-128,57.4-128,128v32h-96v272c0,44.2,35.8,80,80,80h288
	c44.2,0,80-35.8,80-80V185H97z M-95,153c0-35.3,28.7-64,64-64s64,28.7,64,64v32H-95V153z M65,273c-13.3,0-24-10.7-24-24
	s10.7-24,24-24s24,10.7,24,24S78.3,273,65,273z M-127,273c-13.3,0-24-10.7-24-24s10.7-24,24-24s24,10.7,24,24S-113.7,273-127,273z"
	/>
</svg>
