<?xml version="1.0" encoding="utf-8"?>
<!-- Generator: Adobe Illustrator 19.0.0, SVG Export Plug-In . SVG Version: 6.00 Build 0)  -->
<svg version="1.1" id="Capa_1" focusable="false" xmlns="http://www.w3.org/2000/svg" xmlns:xlink="http://www.w3.org/1999/xlink"
	 x="0px" y="0px" viewBox="-255 25 448 512" style="enable-background:new -255 25 448 512;" xml:space="preserve">
<style type="text/css">
	.st0{fill:#49B7F3;}
</style>
<path class="st0" d="M-31,281c70.7,0,128-57.3,128-128S39.7,25-31,25s-128,57.3-128,128S-101.7,281-31,281z M58.6,313H41.9
	C19.7,323.2-5,329-31,329s-50.6-5.8-72.9-16h-16.7c-74.2,0-134.4,60.2-134.4,134.4V489c0,26.5,21.5,48,48,48h352
	c26.5,0,48-21.5,48-48v-41.6C193,373.2,132.8,313,58.6,313z"/>
</svg>
